# xmcd CD database file
#
# Track frame offsets:
#	150
#	15910
#	41318
#	65677
#	90002
#	113021
#	131344
#	156067
#	176362
#	194623
#	215536
#	234689
#
# Disc length: 3340 seconds
#
# Revision: 0
# Processed by: cddbd v1.5PL3 Copyright (c) Steve Scherf et al.
# Submitted via: CDex 1.40Release
#
DISCID=8e0d0a0c
DTITLE=Uncle Jam Band - Red Sky Fire
DYEAR=2004
DGENRE=Blues
TTITLE0=Get Along
TTITLE1=Me, Myself, And I
TTITLE2=Red Sky Fire
TTITLE3=Rolling Ball
TTITLE4=Sweet Jesus
TTITLE5=Shame
TTITLE6=She's On Her Way
TTITLE7=Troubled Child
TTITLE8=The Handshake
TTITLE9=Jealous Mind
TTITLE10=Heavy Weather
TTITLE11=In The Middle
EXTD=YEAR: 2004 ID3G: 0
EXTT0=
EXTT1=
EXTT2=
EXTT3=
EXTT4=
EXTT5=
EXTT6=
EXTT7=
EXTT8=
EXTT9=
EXTT10=
EXTT11=
PLAYORDER=
